<svg xmlns="http://www.w3.org/2000/svg" width="118" height="123"><g fill="#FFF" fill-rule="evenodd" stroke="#FFF"><path d="M33.736 41.595l.419.403c11.752 9.844 24.431 8.886 34.092 2.464 6.088-4.049 33.633-22.367 49.202-32.718V1.4H1.419v27.309c7.071-1.224 18.47-.022 32.316 12.886h.001zM77.386 87.02L63.681 73.878a66.74999482 66.74999482 0 0 0-3.927-3.313c-11.204-7.867-21.646-5.476-26.149-3.802-1.362.544-2.665 1.287-3.586 1.869L1.417 87.762v34.666h116.03v-24.95c-2.55 1.62-18.27 10.12-40.063-10.46l.002.002z"/><path d="M32.707 44.696a43.61403656 43.61403656 0 0 0-1.915-1.698c-13.702-10.6-26.646-5.409-29.376-4.116v11.931L8.13 46.29s10.346-7.674 26.446.195l-1.869-1.789zM48.735 60.105a66.21397655 66.21397655 0 0 1-1.823-1.664c-12.157-10.285-23.908-7.67-28.781-5.864-1.382.554-2.7 1.303-3.629 1.887L1.416 63.218v12.288l21.888-14.748s10.228-7.589 26.166.054l-.735-.707zM117.457 72.97a7338.56406933 7338.56406933 0 0 1-11.048 7.441c-4.128 2.765-13.678 9.614-29.577 2.015l1.869 1.797c.699.63 1.554 1.362 2.481 2.077 11.418 8.53 23.62 7.303 32.769 1.243 1.171182-.7747167 2.340186-1.5527197 3.507-2.334V72.975l-.001-.005zM117.458 48.365a65300.80762244 65300.80762244 0 0 1-26.085 17.536c-4.127 2.765-13.82 9.708-29.379 2.273l1.804 1.729c.205.19.409.375.612.571l-.01.01.01-.01c12.079 10.22 25.379 8.657 34.501 2.563a3556.88700558 3556.88700558 0 0 0 18.548-12.507l-.01-12.165h.009zM117.449 23.884c-14.452 9.682-38.162 25.568-41.031 27.493-4.162 2.789-13.974 9.836-29.335 2.5l1.864 1.796c1.111 1.004 2.605 2.259 4.192 3.295 10.632 6.792 21.759 5.591 30.817-.455a23884.67286634 23884.67286634 0 0 1 33.493-22.285V23.884z"/></g></svg>